<svg width="39" height="26" viewBox="0 0 39 26" fill="none" xmlns="http://www.w3.org/2000/svg">
<path d="M31.916 0.0078125C35.0862 0.168565 37.6074 2.78988 37.6074 6V13H35.6074V6C35.6074 3.79095 33.8164 2.00015 31.6074 2H6C3.79086 2 2 3.79086 2 6V19.1641C2 21.3732 3.79086 23.1641 6 23.1641H24.1426V25.1641H6L5.69141 25.1562C2.52111 24.9956 0 22.3743 0 19.1641V6C0 2.68629 2.68629 2.66153e-08 6 0H31.6074L31.916 0.0078125Z" fill="#E2E3DF"/>
<path d="M32.5 12.0714V25.0714" stroke="#E2E3DF" stroke-width="2"/>
<path d="M26 18.5714H39" stroke="#E2E3DF" stroke-width="2"/>
</svg>
