<svg width="32" height="21" viewBox="0 0 32 21" fill="none" xmlns="http://www.w3.org/2000/svg">
<path d="M24.3945 0.0078125C27.5647 0.168551 30.0859 2.78987 30.0859 6V10.3994H28.8857V6C28.8857 3.34911 26.7368 1.20033 24.0859 1.2002H6C3.34903 1.2002 1.2002 3.34903 1.2002 6V14.1309C1.2002 16.7818 3.34903 18.9307 6 18.9307H19.3145V20.1309H6C2.68629 20.1309 0 17.4446 0 14.1309V6C0 2.78979 2.52111 0.168429 5.69141 0.0078125L6 0H24.0859L24.3945 0.0078125Z" fill="#E2E3DF"/>
<path d="M26 9.65723V20.057" stroke="#E2E3DF" stroke-width="1.2"/>
<path d="M20.8 14.8564H31.2" stroke="#E2E3DF" stroke-width="1.2"/>
</svg>
