<svg width="26" height="26" viewBox="0 0 26 26" fill="none" xmlns="http://www.w3.org/2000/svg">
<path d="M16.5699 21.8248C16.3799 22.0252 16.0634 22.0337 15.863 21.8437C15.6626 21.6538 15.6541 21.3373 15.8441 21.1369L19.8949 16.8629C20.0849 16.6625 20.4014 16.654 20.6018 16.844C20.8022 17.0339 20.8107 17.3504 20.6207 17.5508L16.5699 21.8248Z" fill="#8895AC"/>
<path d="M16.551 16.8142C16.3506 16.6242 16.0341 16.6327 15.8441 16.8331C15.6542 17.0335 15.6627 17.35 15.8631 17.54L20.1371 21.5908C20.3375 21.7808 20.654 21.7723 20.8439 21.5719C21.0339 21.3715 21.0254 21.055 20.825 20.865L16.551 16.8142Z" fill="#8895AC"/>
<path d="M0 13C0 5.8203 5.8203 0 13 0C20.1797 0 26 5.8203 26 13H25C25 6.37258 19.6274 1 13 1C6.37258 1 1 6.37258 1 13C1 19.6274 6.37258 25 13 25V26C5.8203 26 0 20.1797 0 13ZM16.0391 5.88477C16.2869 5.72335 16.6098 5.72209 16.8594 5.88086L16.9775 5.97363L20.4512 9.31152C20.7537 9.60249 20.7555 10.0828 20.4561 10.377L11.6455 19.0312C11.5192 19.1553 11.3534 19.2291 11.1797 19.2441L7.5918 19.5547C7.15819 19.5919 6.75839 19.2501 6.77344 18.7871L6.89258 15.1338C6.89896 14.9412 6.98011 14.7606 7.11523 14.6279L15.9219 5.97949L16.0391 5.88477ZM7.88867 15.2695L7.78223 18.5342L11.0068 18.2549L17.04 12.3311L13.9883 9.27832L7.88867 15.2695ZM14.7021 8.57812L17.7529 11.6299L19.5664 9.84863L16.4541 6.85742L14.7021 8.57812Z" fill="#8895AC"/>
</svg>
