<svg width="25" height="25" viewBox="0 0 25 25" fill="none" xmlns="http://www.w3.org/2000/svg">
<path d="M19.1797 6.59596C19.3046 6.62439 19.3918 6.74571 19.3709 6.87835L17.3665 19.5395L17.3551 19.5834C17.3254 19.6677 17.2526 19.7301 17.1647 19.7462L17.12 19.7503H7.96305L7.91829 19.7462C7.83038 19.7301 7.75764 19.6677 7.72786 19.5834L7.71647 19.5395L5.71208 6.87835C5.69119 6.74571 5.77844 6.62439 5.90332 6.59596L5.95947 6.58945H19.1235L19.1797 6.59596ZM8.4611 18.9169H16.6219L18.4408 7.42278H6.64225L8.4611 18.9169Z" fill="#8895AC"/>
<path d="M16.2502 6.83333H15.4168V5.58333H9.5835V6.83333H8.75016V5.4165C8.75025 5.04844 9.04861 4.75009 9.41667 4.75H15.5837C15.9517 4.75009 16.2501 5.04844 16.2502 5.4165V6.83333Z" fill="#8895AC"/>
<path d="M8.86033 9.54633C8.84524 9.40909 8.94482 9.29277 9.08275 9.28653L9.39399 9.27246C9.53193 9.26622 9.65597 9.37242 9.67106 9.50966L10.5128 17.1661C10.5279 17.3034 10.4283 17.4197 10.2904 17.4259L9.97915 17.44C9.84122 17.4462 9.71718 17.34 9.70209 17.2028L8.86033 9.54633Z" fill="#8895AC"/>
<path d="M16.2023 9.54633C16.2174 9.40909 16.1178 9.29277 15.9799 9.28653L15.6687 9.27246C15.5307 9.26622 15.4067 9.37242 15.3916 9.50966L14.5498 17.1661C14.5348 17.3034 14.6343 17.4197 14.7723 17.4259L15.0835 17.44C15.2214 17.4462 15.3455 17.34 15.3606 17.2028L16.2023 9.54633Z" fill="#8895AC"/>
<path d="M12.9989 9.51116C12.9989 9.37309 12.8869 9.26116 12.7489 9.26116H12.4155C12.2775 9.26116 12.1655 9.37309 12.1655 9.51116V17.5477C12.1655 17.6858 12.2775 17.7977 12.4155 17.7977H12.7489C12.8869 17.7977 12.9989 17.6858 12.9989 17.5477V9.51116Z" fill="#8895AC"/>
<path d="M24.1667 12.5C24.1667 6.05668 18.9433 0.833333 12.5 0.833333C6.05668 0.833333 0.833333 6.05668 0.833333 12.5C0.833333 18.9433 6.05668 24.1667 12.5 24.1667V25C5.59644 25 0 19.4036 0 12.5C0 5.59644 5.59644 0 12.5 0C19.4036 0 25 5.59644 25 12.5C25 19.4036 19.4036 25 12.5 25V24.1667C18.9433 24.1667 24.1667 18.9433 24.1667 12.5Z" fill="#8895AC"/>
</svg>
