<svg width="27" height="27" viewBox="0 0 27 27" fill="none" xmlns="http://www.w3.org/2000/svg">
<path d="M14.75 9.33333L18.0834 12.6667M26 13.5C26 20.4036 20.4036 26 13.5 26C6.59644 26 1 20.4036 1 13.5C1 6.59644 6.59644 1 13.5 1C20.4036 1 26 6.59644 26 13.5ZM16.7724 6.83583L7.96578 15.485C7.92076 15.5292 7.89461 15.5883 7.89258 15.6505L7.77333 19.3033C7.76851 19.451 7.89767 19.5695 8.04917 19.5565L11.6369 19.2464C11.6966 19.2412 11.7526 19.2157 11.7948 19.1742L20.6061 10.5205C20.7046 10.4237 20.7038 10.2677 20.6043 10.172L17.1311 6.83389C17.0315 6.73822 16.871 6.73908 16.7724 6.83583Z" stroke="#8895AC"/>
</svg>
