<svg width="19" height="19" viewBox="0 0 19 19" fill="none" xmlns="http://www.w3.org/2000/svg">
<path fill-rule="evenodd" clip-rule="evenodd" d="M9.5 0.5C4.5275 0.5 0.5 4.62937 0.5 9.72764C0.5 13.8109 3.07625 17.2597 6.65375 18.4824C7.10375 18.5631 7.2725 18.2863 7.2725 18.0441C7.2725 17.8249 7.26125 17.0982 7.26125 16.3254C5 16.7522 4.415 15.7602 4.235 15.2412C4.13375 14.9759 3.695 14.1569 3.3125 13.9378C2.9975 13.7647 2.5475 13.338 3.30125 13.3264C4.01 13.3149 4.51625 13.9954 4.685 14.2723C5.495 15.6679 6.78875 15.2758 7.30625 15.0335C7.385 14.4337 7.62125 14.03 7.88 13.7993C5.8775 13.5687 3.785 12.7728 3.785 9.24319C3.785 8.23969 4.13375 7.4092 4.7075 6.76326C4.6175 6.53257 4.3025 5.58674 4.7975 4.31794C4.7975 4.31794 5.55125 4.07571 7.2725 5.26377C7.9925 5.05615 8.7575 4.95234 9.5225 4.95234C10.2875 4.95234 11.0525 5.05615 11.7725 5.26377C13.4937 4.06418 14.2475 4.31794 14.2475 4.31794C14.7425 5.58674 14.4275 6.53257 14.3375 6.76326C14.9112 7.4092 15.26 8.22815 15.26 9.24319C15.26 12.7843 13.1562 13.5687 11.1537 13.7993C11.48 14.0877 11.7612 14.6414 11.7612 15.5065C11.7612 16.7407 11.75 17.7326 11.75 18.0441C11.75 18.2863 11.9187 18.5746 12.3687 18.4824C14.1554 17.8639 15.7079 16.6867 16.8078 15.1161C17.9077 13.5457 18.4995 11.6611 18.5 9.72764C18.5 4.62937 14.4725 0.5 9.5 0.5Z" stroke="#536785" stroke-linejoin="round"/>
</svg>
