<svg width="18" height="18" viewBox="0 0 18 18" fill="none" xmlns="http://www.w3.org/2000/svg">
<path d="M9.19531 0.5C11.3449 0.5 13.1619 1.20441 14.6006 2.37109L12.6963 4.23535C11.7047 3.45779 10.5056 3.0625 9.19531 3.0625C6.57136 3.06255 4.35866 4.7924 3.56543 7.12109C3.36558 7.70789 3.24707 8.34 3.24707 9C3.24707 9.65339 3.35591 10.285 3.56543 10.8779V10.8789C4.35866 13.2076 6.57135 14.9375 9.19531 14.9375C10.5274 14.9375 11.6731 14.5825 12.5869 13.9863L12.5898 13.9844C13.6604 13.2774 14.3939 12.228 14.6436 10.9805C14.6729 10.8336 14.635 10.6812 14.54 10.5654C14.4451 10.4496 14.3031 10.3828 14.1533 10.3828H9.69531V8H17.4229C17.4724 8.39024 17.5 8.78887 17.5 9.20215C17.5 11.8149 16.5517 13.9842 14.9365 15.4463C13.5195 16.7282 11.5657 17.5 9.19531 17.5C5.79315 17.5 2.85948 15.5835 1.43359 12.8066L1.43262 12.8057L1.22168 12.3682C0.759249 11.3344 0.5 10.1994 0.5 9C0.5 7.62903 0.839035 6.34211 1.43262 5.19434L1.43359 5.19336C2.85948 2.41649 5.79314 0.500039 9.19531 0.5Z" stroke="#536785" stroke-linecap="round" stroke-linejoin="round"/>
</svg>
