<svg width="145" height="25" viewBox="0 0 145 25" fill="none" xmlns="http://www.w3.org/2000/svg">
<g opacity="0.88">
<path d="M0.976562 24.4883C0.325521 24.4883 0 24.1562 0 23.4922C0 23.349 0.0195312 23.1732 0.0585938 22.9648C0.110677 22.7435 0.208333 22.5026 0.351562 22.2422C0.572917 21.8255 0.813802 21.3372 1.07422 20.7773C1.33464 20.2044 1.60807 19.612 1.89453 19C2.20703 18.3359 2.5651 17.5742 2.96875 16.7148C3.38542 15.8424 3.8737 14.8398 4.43359 13.707C4.2513 13.5508 4.09505 13.362 3.96484 13.1406C3.84766 12.9062 3.78906 12.6198 3.78906 12.2812C3.78906 11.6693 4.02344 11.2201 4.49219 10.9336C4.97396 10.6341 5.54688 10.4844 6.21094 10.4844C6.86198 10.4844 7.49349 10.6016 8.10547 10.8359C8.73047 11.0573 9.04297 11.3958 9.04297 11.8516C9.04297 11.9036 8.9974 12.0273 8.90625 12.2227C8.82812 12.4049 8.78906 12.5286 8.78906 12.5938C8.78906 12.6198 8.79557 12.6328 8.80859 12.6328H8.82812L8.86719 12.6133C9.83073 12.0143 10.8659 11.5065 11.9727 11.0898C13.0794 10.6732 13.9909 10.4648 14.707 10.4648C15.293 10.4648 15.7422 10.6081 16.0547 10.8945C16.3802 11.168 16.543 11.6367 16.543 12.3008C16.543 12.444 16.5365 12.6003 16.5234 12.7695C16.5104 12.9258 16.4844 13.0951 16.4453 13.2773C16.3542 13.7591 15.9896 14.3841 15.3516 15.1523C14.7135 15.9206 14.0365 16.6628 13.3203 17.3789C12.9948 17.7044 12.6042 18.0951 12.1484 18.5508C11.6927 18.9935 11.2956 19.4036 10.957 19.7812C10.6185 20.1458 10.4492 20.3932 10.4492 20.5234C10.4492 20.7057 10.5143 20.7969 10.6445 20.7969C11.582 20.3932 12.6432 19.8984 13.8281 19.3125C15.013 18.7135 16.1589 18.1146 17.2656 17.5156C18.3724 16.9167 19.2773 16.4154 19.9805 16.0117C20.2539 15.8555 20.4883 15.7773 20.6836 15.7773C21.2305 15.7773 21.5039 16.0638 21.5039 16.6367C21.5039 16.9362 21.3737 17.2812 21.1133 17.6719C20.8659 18.0495 20.4427 18.4466 19.8438 18.8633C19.2839 19.2148 18.5156 19.7031 17.5391 20.3281C16.5755 20.9401 15.6185 21.5195 14.668 22.0664C13.7305 22.6003 12.832 23.056 11.9727 23.4336C11.1263 23.8112 10.4167 24 9.84375 24C8.94531 24 8.26823 23.7852 7.8125 23.3555C7.36979 22.9258 7.14844 22.3724 7.14844 21.6953C7.14844 21.5781 7.15495 21.5 7.16797 21.4609C7.3112 20.6276 7.61068 19.8203 8.06641 19.0391C8.52214 18.2578 8.9974 17.5417 9.49219 16.8906C9.98698 16.2526 10.4232 15.6602 10.8008 15.1133C11.1914 14.5664 11.3867 14.0977 11.3867 13.707C11.3867 13.5117 11.3151 13.4141 11.1719 13.4141C10.9635 13.4141 10.5859 13.5182 10.0391 13.7266C9.49219 13.9219 8.95182 14.1823 8.41797 14.5078C7.88411 14.8333 7.51953 15.1784 7.32422 15.543C7.0638 15.9987 6.73177 16.6367 6.32812 17.457C5.9375 18.2643 5.54688 19.0911 5.15625 19.9375C4.77865 20.7839 4.45964 21.487 4.19922 22.0469C3.91276 22.763 3.4375 23.349 2.77344 23.8047C2.1224 24.2604 1.52344 24.4883 0.976562 24.4883Z" fill="#536785"/>
<path d="M21.9727 24.4883C20.931 24.4883 20.0391 24.2344 19.2969 23.7266C18.5677 23.2057 18.0078 22.5286 17.6172 21.6953C17.2396 20.849 17.0508 19.944 17.0508 18.9805C17.0508 18.1341 17.2917 17.1901 17.7734 16.1484C18.2682 15.0938 18.9714 14.0846 19.8828 13.1211C20.7943 12.1576 21.8815 11.3633 23.1445 10.7383C24.4206 10.1003 25.8073 9.78125 27.3047 9.78125C28.3854 9.78125 29.1927 10.0417 29.7266 10.5625C30.2604 11.0833 30.5273 11.806 30.5273 12.7305C30.5273 13.2773 30.3841 13.8503 30.0977 14.4492C29.8112 15.0482 29.3164 15.6536 28.6133 16.2656C27.9102 16.8906 26.9661 17.5286 25.7812 18.1797C24.6094 18.8177 23.138 19.4622 21.3672 20.1133C21.5104 20.9206 22.1615 21.3242 23.3203 21.3242C24.2188 21.3242 25.1888 21.1419 26.2305 20.7773C27.2721 20.3997 28.2747 19.9701 29.2383 19.4883C30.2018 19.0195 31.0286 18.5768 31.7188 18.1602C32.4089 17.7435 32.819 17.5091 32.9492 17.457C33.0664 17.3789 33.1706 17.3333 33.2617 17.3203C33.3659 17.3073 33.457 17.3008 33.5352 17.3008C33.8477 17.3008 34.0625 17.4245 34.1797 17.6719C34.3099 17.9062 34.375 18.1016 34.375 18.2578C34.375 18.375 34.362 18.5182 34.3359 18.6875C34.3099 18.8438 34.2122 19.026 34.043 19.2344C33.8737 19.4036 33.3789 19.7747 32.5586 20.3477C31.7383 20.9206 30.8594 21.474 29.9219 22.0078C28.776 22.6458 27.5 23.2188 26.0938 23.7266C24.6875 24.2344 23.3138 24.4883 21.9727 24.4883ZM21.0742 17.8672C21.9206 17.4245 22.7799 16.9102 23.6523 16.3242C24.5378 15.7253 25.2083 15.2891 25.6641 15.0156C26.276 14.625 26.6797 14.2799 26.875 13.9805C27.0964 13.6549 27.207 13.3815 27.207 13.1602C27.207 12.9648 27.1419 12.8086 27.0117 12.6914C26.8945 12.5742 26.7578 12.5026 26.6016 12.4766L26.4258 12.457H26.25C25.5339 12.457 24.8698 12.6654 24.2578 13.082C23.6589 13.4857 23.151 13.9935 22.7344 14.6055C22.2917 15.2435 21.9336 15.8424 21.6602 16.4023C21.3997 16.9622 21.2044 17.4505 21.0742 17.8672Z" fill="#536785"/>
<path d="M33.8477 24.4883C32.819 24.4883 32.1029 24.2344 31.6992 23.7266C31.2956 23.2188 31.0938 22.5938 31.0938 21.8516C31.0938 21.2005 31.2044 20.5234 31.4258 19.8203C31.6471 19.1172 31.8945 18.4857 32.168 17.9258L34.4531 13.2383H33.6133C32.8841 13.2383 32.3828 13.1211 32.1094 12.8867C31.8359 12.6523 31.6992 12.3854 31.6992 12.0859C31.6992 11.7865 31.8685 11.4479 32.207 11.0703C32.5456 10.6797 33.0078 10.4844 33.5938 10.4844H35.7031L39.8242 2.30078C40.0846 1.80599 40.4036 1.45443 40.7812 1.24609C41.1719 1.02474 41.5755 0.914062 41.9922 0.914062C42.3828 0.914062 42.7409 1.01823 43.0664 1.22656C43.3919 1.4349 43.5547 1.77995 43.5547 2.26172C43.5547 2.50911 43.4961 2.76302 43.3789 3.02344C43.2747 3.27083 43.1315 3.5638 42.9492 3.90234C42.7409 4.29297 42.4609 4.82031 42.1094 5.48438C41.7578 6.13542 41.3216 6.92318 40.8008 7.84766L39.3945 10.4844H45.7617C46.3867 10.4844 46.8945 10.569 47.2852 10.7383C47.6888 10.8945 47.8906 11.2526 47.8906 11.8125C47.8906 12.099 47.7865 12.3789 47.5781 12.6523C47.3698 12.9258 46.9206 13.0885 46.2305 13.1406H38.1055L36.7383 15.875L35.5273 18.3555C35.3711 18.668 35.2148 19.0326 35.0586 19.4492C34.9154 19.8529 34.8438 20.2109 34.8438 20.5234C34.8438 20.9141 35.026 21.1094 35.3906 21.1094C35.8073 21.1094 36.3672 20.9336 37.0703 20.582C37.7734 20.2305 38.5156 19.8008 39.2969 19.293C40.0911 18.7852 40.8529 18.2578 41.582 17.7109C42.3112 17.151 42.9818 16.6107 43.5938 16.0898C43.8151 15.9466 44.0104 15.875 44.1797 15.875C44.4661 15.875 44.681 16.0312 44.8242 16.3438C44.9674 16.6562 44.9805 17.0339 44.8633 17.4766C44.7591 17.9193 44.4531 18.3424 43.9453 18.7461C43.099 19.5143 42.2396 20.2435 41.3672 20.9336C40.5078 21.6107 39.6549 22.2161 38.8086 22.75C37.9492 23.2708 37.1029 23.6875 36.2695 24C35.4362 24.3255 34.6289 24.4883 33.8477 24.4883Z" fill="#536785"/>
<path d="M49.5508 8.49219C48.7435 8.49219 48.1771 8.36849 47.8516 8.12109C47.526 7.86068 47.3438 7.52214 47.3047 7.10547C47.3047 6.49349 47.526 5.89453 47.9688 5.30859C48.4245 4.70964 49.0951 4.41016 49.9805 4.41016C50.7357 4.41016 51.263 4.5599 51.5625 4.85938C51.862 5.14583 52.0117 5.51042 52.0117 5.95312C52.0117 6.44792 51.8164 6.99479 51.4258 7.59375C51.0482 8.19271 50.4232 8.49219 49.5508 8.49219ZM44.7656 24.4883C43.7109 24.4883 42.8776 24.2214 42.2656 23.6875C41.6667 23.1406 41.3672 22.2943 41.3672 21.1484C41.3672 20.3542 41.5104 19.5664 41.7969 18.7852C42.0964 17.9909 42.4219 17.2487 42.7734 16.5586C43.138 15.8555 43.4245 15.2435 43.6328 14.7227C43.6979 14.5534 43.8086 14.293 43.9648 13.9414C44.1341 13.5898 44.3099 13.2318 44.4922 12.8672L45.1562 11.5C45.3776 11.1354 45.6315 10.875 45.918 10.7188C46.2044 10.5625 46.4974 10.4844 46.7969 10.4844C47.2917 10.4844 47.7148 10.6471 48.0664 10.9727C48.431 11.2852 48.6133 11.6888 48.6133 12.1836C48.6003 12.3008 48.5807 12.418 48.5547 12.5352C48.5417 12.6523 48.5026 12.7695 48.4375 12.8867C48.151 13.4076 47.9036 13.8958 47.6953 14.3516C47.487 14.7943 47.2721 15.2435 47.0508 15.6992C46.8685 16.0768 46.6406 16.5391 46.3672 17.0859C46.0938 17.6328 45.8529 18.1862 45.6445 18.7461C45.4362 19.293 45.332 19.7812 45.332 20.2109C45.332 20.5625 45.4167 20.7969 45.5859 20.9141C45.7682 21.0182 46.0221 21.0703 46.3477 21.0703C46.8685 21.0703 47.4414 20.9076 48.0664 20.582C48.7044 20.2565 49.3099 19.8529 49.8828 19.3711C50.4818 18.8893 51.0352 18.401 51.543 17.9062C52.0508 17.3984 52.4284 16.9883 52.6758 16.6758C52.9232 16.4284 53.1836 16.3047 53.457 16.3047C53.6914 16.3047 53.8802 16.4089 54.0234 16.6172C54.1797 16.8255 54.2578 17.0924 54.2578 17.418C54.2578 17.7174 54.1797 18.0365 54.0234 18.375C53.8802 18.7135 53.6393 19.0326 53.3008 19.332C52.4414 20.2044 51.543 21.0378 50.6055 21.832C49.668 22.6133 48.7044 23.2513 47.7148 23.7461C46.7383 24.2409 45.7552 24.4883 44.7656 24.4883Z" fill="#536785"/>
<path d="M51.7188 24.4883C51.263 24.4883 50.9049 24.3451 50.6445 24.0586C50.3841 23.7721 50.2539 23.4206 50.2539 23.0039C50.2539 22.6654 50.4492 22.0339 50.8398 21.1094C51.2305 20.1719 51.6862 19.1693 52.207 18.1016C52.8711 16.7083 53.457 15.5039 53.9648 14.4883C54.4727 13.4596 54.8503 12.6784 55.0977 12.1445C55.3581 11.5846 55.6836 11.168 56.0742 10.8945C56.4648 10.6211 56.849 10.4844 57.2266 10.4844C57.5391 10.4844 57.819 10.6016 58.0664 10.8359C58.3138 11.0573 58.4375 11.3893 58.4375 11.832C58.4375 12.0013 58.418 12.1836 58.3789 12.3789C58.3398 12.5742 58.2682 12.7826 58.1641 13.0039C58.5677 12.4961 59.1667 12.0013 59.9609 11.5195C60.7552 11.0247 61.6146 10.6146 62.5391 10.2891C63.4635 9.96354 64.3164 9.80078 65.0977 9.80078C65.7878 9.80078 66.3607 9.97005 66.8164 10.3086C67.2852 10.6341 67.5195 11.194 67.5195 11.9883C67.5195 12.6654 67.3698 13.401 67.0703 14.1953C66.7708 14.9766 66.4128 15.7318 65.9961 16.4609C65.5534 17.2292 65.1367 17.9062 64.7461 18.4922C64.3685 19.0651 64.0755 19.5404 63.8672 19.918C63.6979 20.1263 63.6133 20.3672 63.6133 20.6406C63.6133 20.901 63.75 21.0312 64.0234 21.0312C64.1146 21.0312 64.2188 21.0247 64.3359 21.0117C64.4531 20.9857 64.5964 20.9141 64.7656 20.7969C65.7422 20.4323 66.7122 19.9701 67.6758 19.4102C68.6523 18.8503 69.5443 18.2708 70.3516 17.6719C71.1719 17.0729 71.8294 16.5456 72.3242 16.0898C72.5326 15.9206 72.7344 15.8359 72.9297 15.8359C73.3984 15.8359 73.6328 16.1354 73.6328 16.7344C73.6328 17.138 73.5026 17.5872 73.2422 18.082C72.9948 18.5768 72.5977 19.0391 72.0508 19.4688C71.1003 20.1458 70.2083 20.7773 69.375 21.3633C68.5547 21.9362 67.6823 22.457 66.7578 22.9258C65.8333 23.3945 64.7331 23.8112 63.457 24.1758C62.793 24.3841 62.2266 24.4883 61.7578 24.4883C60.4297 24.4883 59.7656 23.7591 59.7656 22.3008C59.7656 22.2096 59.7656 22.125 59.7656 22.0469C59.7786 21.9557 59.7917 21.8581 59.8047 21.7539C59.8438 21.168 60.0521 20.4909 60.4297 19.7227C60.8073 18.9414 61.2174 18.1732 61.6602 17.418C62.1029 16.6888 62.5 16.0052 62.8516 15.3672C63.2031 14.7292 63.3789 14.2539 63.3789 13.9414C63.3789 13.4727 63.1576 13.2383 62.7148 13.2383C61.8945 13.2383 61.1068 13.4792 60.3516 13.9609C59.6094 14.4427 58.9062 15.0547 58.2422 15.7969C57.5911 16.526 56.9922 17.2943 56.4453 18.1016C55.8984 18.8958 55.4167 19.6185 55 20.2695C54.7005 20.7643 54.4076 21.3438 54.1211 22.0078C53.8477 22.6719 53.5221 23.2513 53.1445 23.7461C52.7799 24.2409 52.3047 24.4883 51.7188 24.4883Z" fill="#536785"/>
<path d="M74.0039 24.4883C72.9622 24.4883 72.0703 24.2344 71.3281 23.7266C70.599 23.2057 70.0391 22.5286 69.6484 21.6953C69.2708 20.849 69.082 19.944 69.082 18.9805C69.082 18.1341 69.3229 17.1901 69.8047 16.1484C70.2995 15.0938 71.0026 14.0846 71.9141 13.1211C72.8255 12.1576 73.9128 11.3633 75.1758 10.7383C76.4518 10.1003 77.8385 9.78125 79.3359 9.78125C80.4167 9.78125 81.224 10.0417 81.7578 10.5625C82.2917 11.0833 82.5586 11.806 82.5586 12.7305C82.5586 13.2773 82.4154 13.8503 82.1289 14.4492C81.8424 15.0482 81.3477 15.6536 80.6445 16.2656C79.9414 16.8906 78.9974 17.5286 77.8125 18.1797C76.6406 18.8177 75.1693 19.4622 73.3984 20.1133C73.5417 20.9206 74.1927 21.3242 75.3516 21.3242C76.25 21.3242 77.2201 21.1419 78.2617 20.7773C79.3034 20.3997 80.306 19.9701 81.2695 19.4883C82.2331 19.0195 83.0599 18.5768 83.75 18.1602C84.4401 17.7435 84.8503 17.5091 84.9805 17.457C85.0977 17.3789 85.2018 17.3333 85.293 17.3203C85.3971 17.3073 85.4883 17.3008 85.5664 17.3008C85.8789 17.3008 86.0938 17.4245 86.2109 17.6719C86.3411 17.9062 86.4062 18.1016 86.4062 18.2578C86.4062 18.375 86.3932 18.5182 86.3672 18.6875C86.3411 18.8438 86.2435 19.026 86.0742 19.2344C85.9049 19.4036 85.4102 19.7747 84.5898 20.3477C83.7695 20.9206 82.8906 21.474 81.9531 22.0078C80.8073 22.6458 79.5312 23.2188 78.125 23.7266C76.7188 24.2344 75.3451 24.4883 74.0039 24.4883ZM73.1055 17.8672C73.9518 17.4245 74.8112 16.9102 75.6836 16.3242C76.569 15.7253 77.2396 15.2891 77.6953 15.0156C78.3073 14.625 78.7109 14.2799 78.9062 13.9805C79.1276 13.6549 79.2383 13.3815 79.2383 13.1602C79.2383 12.9648 79.1732 12.8086 79.043 12.6914C78.9258 12.5742 78.7891 12.5026 78.6328 12.4766L78.457 12.457H78.2812C77.5651 12.457 76.901 12.6654 76.2891 13.082C75.6901 13.4857 75.1823 13.9935 74.7656 14.6055C74.3229 15.2435 73.9648 15.8424 73.6914 16.4023C73.431 16.9622 73.2357 17.4505 73.1055 17.8672Z" fill="#536785"/>
<path d="M84.0625 24.4883C83.6068 24.4883 83.2487 24.3451 82.9883 24.0586C82.7279 23.7721 82.5977 23.4206 82.5977 23.0039C82.5977 22.6654 82.793 22.0339 83.1836 21.1094C83.5742 20.1719 84.0299 19.1693 84.5508 18.1016C85.2148 16.7083 85.8008 15.5039 86.3086 14.4883C86.8164 13.4596 87.194 12.6784 87.4414 12.1445C87.7018 11.5846 88.0273 11.168 88.418 10.8945C88.8086 10.6211 89.1927 10.4844 89.5703 10.4844C89.8828 10.4844 90.1628 10.6016 90.4102 10.8359C90.6576 11.0573 90.7812 11.3893 90.7812 11.832C90.7812 12.0013 90.7617 12.1836 90.7227 12.3789C90.6836 12.5742 90.612 12.7826 90.5078 13.0039C90.9115 12.4961 91.5104 12.0013 92.3047 11.5195C93.099 11.0247 93.9583 10.6146 94.8828 10.2891C95.8073 9.96354 96.6602 9.80078 97.4414 9.80078C98.1315 9.80078 98.7044 9.97005 99.1602 10.3086C99.6289 10.6341 99.8633 11.194 99.8633 11.9883C99.8633 12.6654 99.7135 13.401 99.4141 14.1953C99.1146 14.9766 98.7565 15.7318 98.3398 16.4609C97.8971 17.2292 97.4805 17.9062 97.0898 18.4922C96.7122 19.0651 96.4193 19.5404 96.2109 19.918C96.0417 20.1263 95.957 20.3672 95.957 20.6406C95.957 20.901 96.0938 21.0312 96.3672 21.0312C96.4583 21.0312 96.5625 21.0247 96.6797 21.0117C96.7969 20.9857 96.9401 20.9141 97.1094 20.7969C98.0859 20.4323 99.056 19.9701 100.02 19.4102C100.996 18.8503 101.888 18.2708 102.695 17.6719C103.516 17.0729 104.173 16.5456 104.668 16.0898C104.876 15.9206 105.078 15.8359 105.273 15.8359C105.742 15.8359 105.977 16.1354 105.977 16.7344C105.977 17.138 105.846 17.5872 105.586 18.082C105.339 18.5768 104.941 19.0391 104.395 19.4688C103.444 20.1458 102.552 20.7773 101.719 21.3633C100.898 21.9362 100.026 22.457 99.1016 22.9258C98.1771 23.3945 97.0768 23.8112 95.8008 24.1758C95.1367 24.3841 94.5703 24.4883 94.1016 24.4883C92.7734 24.4883 92.1094 23.7591 92.1094 22.3008C92.1094 22.2096 92.1094 22.125 92.1094 22.0469C92.1224 21.9557 92.1354 21.8581 92.1484 21.7539C92.1875 21.168 92.3958 20.4909 92.7734 19.7227C93.151 18.9414 93.5612 18.1732 94.0039 17.418C94.4466 16.6888 94.8438 16.0052 95.1953 15.3672C95.5469 14.7292 95.7227 14.2539 95.7227 13.9414C95.7227 13.4727 95.5013 13.2383 95.0586 13.2383C94.2383 13.2383 93.4505 13.4792 92.6953 13.9609C91.9531 14.4427 91.25 15.0547 90.5859 15.7969C89.9349 16.526 89.3359 17.2943 88.7891 18.1016C88.2422 18.8958 87.7604 19.6185 87.3438 20.2695C87.0443 20.7643 86.7513 21.3438 86.4648 22.0078C86.1914 22.6719 85.8659 23.2513 85.4883 23.7461C85.1237 24.2409 84.6484 24.4883 84.0625 24.4883Z" fill="#536785"/>
<path d="M104.473 24.4883C103.444 24.4883 102.728 24.2344 102.324 23.7266C101.921 23.2188 101.719 22.5938 101.719 21.8516C101.719 21.2005 101.829 20.5234 102.051 19.8203C102.272 19.1172 102.52 18.4857 102.793 17.9258L105.078 13.2383H104.238C103.509 13.2383 103.008 13.1211 102.734 12.8867C102.461 12.6523 102.324 12.3854 102.324 12.0859C102.324 11.7865 102.493 11.4479 102.832 11.0703C103.171 10.6797 103.633 10.4844 104.219 10.4844H106.328L110.449 2.30078C110.71 1.80599 111.029 1.45443 111.406 1.24609C111.797 1.02474 112.201 0.914062 112.617 0.914062C113.008 0.914062 113.366 1.01823 113.691 1.22656C114.017 1.4349 114.18 1.77995 114.18 2.26172C114.18 2.50911 114.121 2.76302 114.004 3.02344C113.9 3.27083 113.757 3.5638 113.574 3.90234C113.366 4.29297 113.086 4.82031 112.734 5.48438C112.383 6.13542 111.947 6.92318 111.426 7.84766L110.02 10.4844H116.387C117.012 10.4844 117.52 10.569 117.91 10.7383C118.314 10.8945 118.516 11.2526 118.516 11.8125C118.516 12.099 118.411 12.3789 118.203 12.6523C117.995 12.9258 117.546 13.0885 116.855 13.1406H108.73L107.363 15.875L106.152 18.3555C105.996 18.668 105.84 19.0326 105.684 19.4492C105.54 19.8529 105.469 20.2109 105.469 20.5234C105.469 20.9141 105.651 21.1094 106.016 21.1094C106.432 21.1094 106.992 20.9336 107.695 20.582C108.398 20.2305 109.141 19.8008 109.922 19.293C110.716 18.7852 111.478 18.2578 112.207 17.7109C112.936 17.151 113.607 16.6107 114.219 16.0898C114.44 15.9466 114.635 15.875 114.805 15.875C115.091 15.875 115.306 16.0312 115.449 16.3438C115.592 16.6562 115.605 17.0339 115.488 17.4766C115.384 17.9193 115.078 18.3424 114.57 18.7461C113.724 19.5143 112.865 20.2435 111.992 20.9336C111.133 21.6107 110.28 22.2161 109.434 22.75C108.574 23.2708 107.728 23.6875 106.895 24C106.061 24.3255 105.254 24.4883 104.473 24.4883Z" fill="#536785"/>
<path d="M120.176 8.49219C119.368 8.49219 118.802 8.36849 118.477 8.12109C118.151 7.86068 117.969 7.52214 117.93 7.10547C117.93 6.49349 118.151 5.89453 118.594 5.30859C119.049 4.70964 119.72 4.41016 120.605 4.41016C121.361 4.41016 121.888 4.5599 122.188 4.85938C122.487 5.14583 122.637 5.51042 122.637 5.95312C122.637 6.44792 122.441 6.99479 122.051 7.59375C121.673 8.19271 121.048 8.49219 120.176 8.49219ZM115.391 24.4883C114.336 24.4883 113.503 24.2214 112.891 23.6875C112.292 23.1406 111.992 22.2943 111.992 21.1484C111.992 20.3542 112.135 19.5664 112.422 18.7852C112.721 17.9909 113.047 17.2487 113.398 16.5586C113.763 15.8555 114.049 15.2435 114.258 14.7227C114.323 14.5534 114.434 14.293 114.59 13.9414C114.759 13.5898 114.935 13.2318 115.117 12.8672L115.781 11.5C116.003 11.1354 116.257 10.875 116.543 10.7188C116.829 10.5625 117.122 10.4844 117.422 10.4844C117.917 10.4844 118.34 10.6471 118.691 10.9727C119.056 11.2852 119.238 11.6888 119.238 12.1836C119.225 12.3008 119.206 12.418 119.18 12.5352C119.167 12.6523 119.128 12.7695 119.062 12.8867C118.776 13.4076 118.529 13.8958 118.32 14.3516C118.112 14.7943 117.897 15.2435 117.676 15.6992C117.493 16.0768 117.266 16.5391 116.992 17.0859C116.719 17.6328 116.478 18.1862 116.27 18.7461C116.061 19.293 115.957 19.7812 115.957 20.2109C115.957 20.5625 116.042 20.7969 116.211 20.9141C116.393 21.0182 116.647 21.0703 116.973 21.0703C117.493 21.0703 118.066 20.9076 118.691 20.582C119.329 20.2565 119.935 19.8529 120.508 19.3711C121.107 18.8893 121.66 18.401 122.168 17.9062C122.676 17.3984 123.053 16.9883 123.301 16.6758C123.548 16.4284 123.809 16.3047 124.082 16.3047C124.316 16.3047 124.505 16.4089 124.648 16.6172C124.805 16.8255 124.883 17.0924 124.883 17.418C124.883 17.7174 124.805 18.0365 124.648 18.375C124.505 18.7135 124.264 19.0326 123.926 19.332C123.066 20.2044 122.168 21.0378 121.23 21.832C120.293 22.6133 119.329 23.2513 118.34 23.7461C117.363 24.2409 116.38 24.4883 115.391 24.4883Z" fill="#536785"/>
<path d="M125.645 24.4883C125.202 24.4883 124.674 24.3646 124.062 24.1172C123.451 23.8698 122.91 23.4596 122.441 22.8867C121.986 22.3138 121.758 21.5456 121.758 20.582C121.758 19.7747 121.94 18.7656 122.305 17.5547C122.669 16.3438 123.242 15.1523 124.023 13.9805C124.805 12.7826 125.801 11.7865 127.012 10.9922C128.236 10.1979 129.648 9.80078 131.25 9.80078C131.823 9.80078 132.324 9.8724 132.754 10.0156C133.184 10.1589 133.548 10.3151 133.848 10.4844C134.017 10.5885 134.173 10.6992 134.316 10.8164C134.473 10.9206 134.616 11.0378 134.746 11.168L135.43 10.8359C135.625 10.7448 135.827 10.6667 136.035 10.6016C136.257 10.5234 136.445 10.4844 136.602 10.4844C137.096 10.4844 137.5 10.6211 137.812 10.8945C138.125 11.168 138.281 11.4674 138.281 11.793C138.281 11.8971 138.275 11.9688 138.262 12.0078C138.171 12.3724 138.001 12.8737 137.754 13.5117C137.52 14.1497 137.266 14.8594 136.992 15.6406C136.719 16.3958 136.484 17.125 136.289 17.8281C136.107 18.5312 136.016 19.1107 136.016 19.5664C136.016 19.957 136.081 20.2826 136.211 20.543C136.341 20.7904 136.562 20.9141 136.875 20.9141C137.253 20.9141 137.76 20.6992 138.398 20.2695C139.036 19.8268 139.694 19.306 140.371 18.707C140.736 18.3815 141.113 18.0365 141.504 17.6719C141.895 17.2943 142.292 16.8971 142.695 16.4805C142.904 16.3112 143.105 16.2266 143.301 16.2266C143.561 16.2266 143.776 16.3568 143.945 16.6172C144.128 16.8646 144.219 17.1445 144.219 17.457C144.219 17.8216 144.095 18.1276 143.848 18.375C143.327 18.8568 142.793 19.3711 142.246 19.918C141.699 20.4648 140.944 21.1354 139.98 21.9297C139.121 22.6328 138.236 23.2383 137.324 23.7461C136.413 24.2409 135.592 24.4883 134.863 24.4883C133.952 24.4883 133.288 24.1367 132.871 23.4336C132.454 22.7174 132.246 21.9557 132.246 21.1484C132.246 20.5625 132.331 20.0417 132.5 19.5859C131.966 20.3021 131.335 21.0443 130.605 21.8125C129.876 22.5677 129.089 23.2057 128.242 23.7266C127.396 24.2344 126.53 24.4883 125.645 24.4883ZM127.207 21.0508C127.624 21.0508 128.145 20.7839 128.77 20.25C129.408 19.7161 130.02 19.0911 130.605 18.375C131.257 17.5938 131.771 16.8841 132.148 16.2461C132.526 15.6081 132.715 15.1784 132.715 14.957C132.715 14.4622 132.428 14.0716 131.855 13.7852C131.283 13.4857 130.768 13.3359 130.312 13.3359C129.505 13.3359 128.737 13.5964 128.008 14.1172C127.292 14.638 126.706 15.3086 126.25 16.1289C125.794 16.9362 125.566 17.776 125.566 18.6484C125.566 19.1562 125.658 19.6836 125.84 20.2305C126.035 20.7773 126.491 21.0508 127.207 21.0508Z" fill="#536785"/>
</g>
</svg>
