<svg width="21" height="17" viewBox="0 0 21 17" fill="none" xmlns="http://www.w3.org/2000/svg">
<path d="M16 0C18.2091 0 20 1.79086 20 4V8H19V4C19 2.34315 17.6569 1 16 1H4C2.34315 1 1 2.34315 1 4V11C1 12.6569 2.34315 14 4 14H13V15H4L3.79395 14.9951C1.7488 14.8913 0.108652 13.2512 0.00488281 11.2061L0 11V4C0 1.79086 1.79086 3.22128e-08 4 0H16Z" fill="#536785"/>
<path d="M16.5 16C16.5 16.2761 16.7239 16.5 17 16.5C17.2761 16.5 17.5 16.2761 17.5 16H17H16.5ZM17.3536 8.64645C17.1583 8.45118 16.8417 8.45118 16.6464 8.64645L13.4645 11.8284C13.2692 12.0237 13.2692 12.3403 13.4645 12.5355C13.6597 12.7308 13.9763 12.7308 14.1716 12.5355L17 9.70711L19.8284 12.5355C20.0237 12.7308 20.3403 12.7308 20.5355 12.5355C20.7308 12.3403 20.7308 12.0237 20.5355 11.8284L17.3536 8.64645ZM17 16H17.5V9H17H16.5V16H17Z" fill="#536785"/>
<path d="M0.869503 2.88315L8.81354 8.73665C9.51905 9.2565 10.4808 9.2565 11.1863 8.73665L14.5652 6.247L19.1304 2.88315" stroke="#536785" stroke-linecap="round" stroke-linejoin="round"/>
</svg>
