<svg width="32" height="32" viewBox="0 0 32 32" fill="none" xmlns="http://www.w3.org/2000/svg">
<path d="M15.5908 31.7714C15.2877 31.7714 14.997 31.651 14.7827 31.4367C14.5684 31.2224 14.448 30.9317 14.448 30.6286C14.448 30.3255 14.5684 30.0348 14.7827 29.8205C14.997 29.6061 15.2877 29.4857 15.5908 29.4857C19.1675 29.4857 22.5976 28.0649 25.1267 25.5358C27.6557 23.0068 29.0766 19.5766 29.0766 16C29.0766 12.4234 27.6557 8.99323 25.1267 6.46417C22.5976 3.9351 19.1675 2.51429 15.5908 2.51429C15.2877 2.51429 14.997 2.39388 14.7827 2.17956C14.5684 1.96523 14.448 1.67454 14.448 1.37143C14.448 1.06833 14.5684 0.777639 14.7827 0.563312C14.997 0.348984 15.2877 0.228577 15.5908 0.228577C19.7737 0.228577 23.7852 1.8902 26.7429 4.84792C29.7006 7.80564 31.3623 11.8172 31.3623 16C31.3623 20.1828 29.7006 24.1944 26.7429 27.1521C23.7852 30.1098 19.7737 31.7714 15.5908 31.7714Z" fill="#E2E3DF"/>
<path d="M17.9442 17.1429H1.78055C1.47745 17.1429 1.18676 17.0225 0.97243 16.8081C0.758103 16.5938 0.637695 16.3031 0.637695 16C0.637695 15.6969 0.758103 15.4062 0.97243 15.1919C1.18676 14.9776 1.47745 14.8571 1.78055 14.8571H17.9442C18.2473 14.8571 18.538 14.9776 18.7523 15.1919C18.9667 15.4062 19.0871 15.6969 19.0871 16C19.0871 16.3031 18.9667 16.5938 18.7523 16.8081C18.538 17.0225 18.2473 17.1429 17.9442 17.1429Z" fill="#E2E3DF"/>
<path d="M12.1001 24.1719C11.8733 24.1727 11.6514 24.1059 11.4626 23.9802C11.2738 23.8544 11.1267 23.6753 11.0401 23.4657C10.9534 23.2561 10.9311 23.0255 10.9759 22.8031C11.0207 22.5808 11.1307 22.3768 11.2919 22.2171L17.1287 16.3794C17.1791 16.3291 17.219 16.2693 17.2463 16.2035C17.2736 16.1377 17.2876 16.0671 17.2876 15.9959C17.2876 15.9247 17.2736 15.8541 17.2463 15.7883C17.219 15.7225 17.1791 15.6627 17.1287 15.6123L11.2919 9.78286C11.1827 9.67747 11.0956 9.55139 11.0356 9.41197C10.9757 9.27255 10.9441 9.1226 10.9428 8.97085C10.9414 8.8191 10.9703 8.6686 11.0277 8.52813C11.0851 8.38767 11.17 8.26004 11.2772 8.1527C11.3845 8.04537 11.5121 7.96047 11.6525 7.90297C11.793 7.84546 11.9434 7.8165 12.0952 7.81778C12.2469 7.81906 12.3969 7.85054 12.5364 7.9104C12.6758 7.97025 12.802 8.05728 12.9074 8.16641L18.7433 14.0005C19.272 14.5316 19.5688 15.2506 19.5688 16C19.5688 16.7495 19.272 17.4684 18.7433 17.9995L12.9056 23.8373C12.7999 23.9432 12.6743 24.0273 12.5361 24.0847C12.3979 24.1421 12.2498 24.1718 12.1001 24.1719Z" fill="#E2E3DF"/>
</svg>
