<svg width="180" height="32" viewBox="0 0 180 32" fill="none" xmlns="http://www.w3.org/2000/svg">
<g opacity="0.88">
<path d="M1.21885 31.0112C0.406284 31.0112 0 30.5745 0 29.7009C0 29.5125 0.024377 29.2812 0.0731311 29.0072C0.138137 28.716 0.260022 28.3991 0.438787 28.0566C0.71506 27.5084 1.01571 26.8661 1.34074 26.1296C1.66576 25.3759 2.00704 24.5966 2.36457 23.7916C2.7546 22.918 3.20152 21.916 3.70531 20.7855C4.22535 19.6379 4.83478 18.319 5.53359 16.8288C5.30607 16.6233 5.11105 16.3749 4.94854 16.0837C4.80228 15.7754 4.72914 15.3986 4.72914 14.9532C4.72914 14.1482 5.02167 13.5572 5.60672 13.1804C6.20802 12.7865 6.92308 12.5895 7.7519 12.5895C8.56446 12.5895 9.35265 12.7436 10.1165 13.052C10.8965 13.3431 11.2866 13.7885 11.2866 14.388C11.2866 14.4565 11.2297 14.6192 11.1159 14.8761C11.0184 15.1159 10.9697 15.2787 10.9697 15.3643C10.9697 15.3986 10.9778 15.4157 10.994 15.4157H11.0184L11.0672 15.39C12.2698 14.6021 13.5618 13.9341 14.9431 13.386C16.3245 12.8378 17.4621 12.5638 18.3559 12.5638C19.0872 12.5638 19.6479 12.7522 20.0379 13.129C20.4442 13.4887 20.6473 14.1054 20.6473 14.9789C20.6473 15.1673 20.6392 15.3729 20.623 15.5955C20.6067 15.8011 20.5742 16.0238 20.5255 16.2636C20.4117 16.8973 19.9567 17.7195 19.1603 18.7301C18.364 19.7407 17.519 20.717 16.6251 21.659C16.2189 22.0873 15.7313 22.6011 15.1625 23.2006C14.5937 23.783 14.098 24.3225 13.6755 24.8193C13.253 25.2989 13.0417 25.6243 13.0417 25.7956C13.0417 26.0354 13.123 26.1553 13.2855 26.1553C14.4556 25.6243 15.7801 24.9734 17.2589 24.2026C18.7378 23.4147 20.1679 22.6268 21.5493 21.8389C22.9307 21.051 24.0601 20.3915 24.9377 19.8605C25.279 19.655 25.5715 19.5522 25.8153 19.5522C26.4978 19.5522 26.8391 19.9291 26.8391 20.6827C26.8391 21.0767 26.6766 21.5306 26.3516 22.0444C26.0428 22.5412 25.5146 23.0636 24.7671 23.6117C24.0683 24.0742 23.1094 24.7165 21.8906 25.5387C20.688 26.3437 19.4935 27.1059 18.3071 27.8253C17.1371 28.5276 16.0157 29.1271 14.9431 29.6238C13.8868 30.1205 13.0011 30.3689 12.286 30.3689C11.1647 30.3689 10.3196 30.0863 9.75081 29.5211C9.19827 28.9558 8.92199 28.2278 8.92199 27.3372C8.92199 27.183 8.93012 27.0802 8.94637 27.0288C9.12514 25.9326 9.49892 24.8707 10.0677 23.8429C10.6365 22.8152 11.2297 21.8732 11.8472 21.0167C12.4648 20.1774 13.0092 19.3981 13.4805 18.6787C13.968 17.9593 14.2118 17.3427 14.2118 16.8288C14.2118 16.5719 14.1224 16.4434 13.9437 16.4434C13.6836 16.4434 13.2124 16.5804 12.5298 16.8545C11.8472 17.1114 11.1728 17.454 10.5065 17.8822C9.84019 18.3104 9.38516 18.7643 9.14139 19.2439C8.81636 19.8434 8.40195 20.6827 7.89816 21.7618C7.41062 22.8238 6.92308 23.9115 6.43554 25.0248C5.96425 26.1382 5.56609 27.0631 5.24106 27.7996C4.88353 28.7417 4.29036 29.5125 3.46154 30.112C2.64897 30.7115 1.90141 31.0112 1.21885 31.0112Z" fill="#1D3048"/>
<path d="M27.4242 31.0112C26.1241 31.0112 25.0108 30.6772 24.0845 30.0092C23.1744 29.3241 22.4756 28.4334 21.9881 27.3372C21.5168 26.2238 21.2811 25.0334 21.2811 23.7659C21.2811 22.6525 21.5818 21.4107 22.1831 20.0404C22.8007 18.653 23.6782 17.3255 24.8158 16.058C25.9534 14.7905 27.3104 13.7457 28.8868 12.9235C30.4794 12.0842 32.2102 11.6645 34.0791 11.6645C35.428 11.6645 36.4355 12.0071 37.1018 12.6923C37.7681 13.3774 38.1013 14.328 38.1013 15.5442C38.1013 16.2636 37.9225 17.0172 37.565 17.8051C37.2075 18.593 36.5899 19.3895 35.7124 20.1946C34.8348 21.0167 33.6566 21.856 32.1777 22.7125C30.7151 23.5518 28.8787 24.3996 26.6685 25.256C26.8472 26.318 27.6598 26.849 29.1062 26.849C30.2275 26.849 31.4382 26.6092 32.7384 26.1296C34.0385 25.6329 35.2898 25.0676 36.4924 24.4339C37.695 23.8172 38.727 23.2349 39.5883 22.6868C40.4496 22.1386 40.9615 21.8303 41.1241 21.7618C41.2703 21.659 41.4003 21.5991 41.5141 21.582C41.6441 21.5648 41.7579 21.5563 41.8554 21.5563C42.2454 21.5563 42.5135 21.719 42.6598 22.0444C42.8223 22.3528 42.9036 22.6097 42.9036 22.8152C42.9036 22.9694 42.8873 23.1578 42.8548 23.3805C42.8223 23.586 42.7004 23.8258 42.4892 24.0999C42.2779 24.3225 41.6603 24.8107 40.6365 25.5644C39.6127 26.318 38.5157 27.046 37.3456 27.7482C35.9155 28.5875 34.3229 29.3412 32.5677 30.0092C30.8126 30.6772 29.0981 31.0112 27.4242 31.0112ZM26.3028 22.3014C27.3592 21.719 28.4317 21.0424 29.5206 20.2716C30.6257 19.4837 31.4626 18.9099 32.0314 18.5502C32.7952 18.0364 33.299 17.5825 33.5428 17.1885C33.8191 16.7603 33.9572 16.4006 33.9572 16.1094C33.9572 15.8525 33.8759 15.6469 33.7134 15.4928C33.5672 15.3386 33.3965 15.2444 33.2015 15.2101L32.9821 15.1845H32.7627C31.8689 15.1845 31.0401 15.4585 30.2763 16.0066C29.5287 16.5376 28.8949 17.2056 28.3749 18.0107C27.8223 18.85 27.3754 19.6379 27.0341 20.3744C26.7091 21.1109 26.4653 21.7533 26.3028 22.3014Z" fill="#1D3048"/>
<path d="M42.2454 31.0112C40.9615 31.0112 40.0677 30.6772 39.5639 30.0092C39.0601 29.3412 38.8082 28.519 38.8082 27.5427C38.8082 26.6863 38.9464 25.7956 39.2226 24.8707C39.4989 23.9457 39.8077 23.115 40.149 22.3784L43.0011 16.2122H41.9529C41.0428 16.2122 40.4171 16.058 40.0758 15.7497C39.7346 15.4414 39.5639 15.0902 39.5639 14.6963C39.5639 14.3023 39.7752 13.857 40.1977 13.3603C40.6203 12.8464 41.1972 12.5895 41.9285 12.5895H44.5612L49.7048 1.82419C50.0298 1.17331 50.428 0.710835 50.8992 0.436778C51.3868 0.145593 51.8906 0 52.4106 0C52.8982 0 53.3451 0.137028 53.7514 0.411085C54.1576 0.685142 54.3608 1.13905 54.3608 1.7728C54.3608 2.09825 54.2876 2.43225 54.1414 2.77482C54.0114 3.10027 53.8326 3.48566 53.6051 3.931C53.3451 4.44486 52.9957 5.13856 52.5569 6.01212C52.1181 6.86855 51.5737 7.90482 50.9236 9.12095L49.1685 12.5895H57.1154C57.8954 12.5895 58.5293 12.7008 59.0168 12.9235C59.5206 13.129 59.7725 13.6001 59.7725 14.3366C59.7725 14.7134 59.6425 15.0817 59.3824 15.4414C59.1224 15.8011 58.5618 16.0152 57.7004 16.0837H47.5596L45.8532 19.6807L44.3418 22.9437C44.1468 23.3548 43.9518 23.8344 43.7568 24.3825C43.578 24.9135 43.4886 25.3845 43.4886 25.7956C43.4886 26.3094 43.7161 26.5664 44.1712 26.5664C44.6912 26.5664 45.39 26.3351 46.2676 25.8727C47.1452 25.4102 48.0715 24.845 49.0466 24.1769C50.0379 23.5089 50.9886 22.8152 51.8987 22.0958C52.8088 21.3593 53.6457 20.6485 54.4095 19.9633C54.6858 19.7749 54.9296 19.6807 55.1408 19.6807C55.4984 19.6807 55.7665 19.8862 55.9453 20.2973C56.124 20.7084 56.1403 21.2051 55.994 21.7875C55.864 22.3699 55.4821 22.9266 54.8483 23.4575C53.792 24.4681 52.7194 25.4273 51.6306 26.3351C50.558 27.2258 49.4935 28.0223 48.4372 28.7246C47.3646 29.4097 46.3082 29.9578 45.2681 30.3689C44.2281 30.7971 43.2205 31.0112 42.2454 31.0112Z" fill="#1D3048"/>
<path d="M61.8445 9.96881C60.8369 9.96881 60.13 9.80609 59.7237 9.48065C59.3174 9.13808 59.0899 8.69274 59.0412 8.14462C59.0412 7.33958 59.3174 6.55167 59.87 5.78088C60.4388 4.99297 61.2757 4.59901 62.3808 4.59901C63.3234 4.59901 63.9816 4.79599 64.3554 5.18995C64.7291 5.56678 64.916 6.04638 64.916 6.62875C64.916 7.27963 64.6723 7.99903 64.1847 8.78694C63.7134 9.57486 62.9334 9.96881 61.8445 9.96881ZM55.8722 31.0112C54.5558 31.0112 53.5157 30.6601 52.7519 29.9578C52.0043 29.2384 51.6306 28.1251 51.6306 26.6178C51.6306 25.5729 51.8093 24.5366 52.1668 23.5089C52.5406 22.4641 52.9469 21.4878 53.3857 20.5799C53.8407 19.655 54.1983 18.85 54.4583 18.1648C54.5395 17.9422 54.6777 17.5996 54.8727 17.1371C55.084 16.6746 55.3034 16.2036 55.5309 15.724L56.3597 13.9255C56.636 13.4459 56.9529 13.1033 57.3104 12.8978C57.6679 12.6923 58.0336 12.5895 58.4074 12.5895C59.0249 12.5895 59.5531 12.8036 59.9919 13.2318C60.4469 13.6429 60.6744 14.1739 60.6744 14.8248C60.6582 14.9789 60.6338 15.1331 60.6013 15.2872C60.585 15.4414 60.5363 15.5955 60.455 15.7497C60.0975 16.4348 59.7887 17.0772 59.5287 17.6767C59.2687 18.259 59.0005 18.85 58.7243 19.4495C58.4967 19.9462 58.2124 20.5543 57.8711 21.2737C57.5298 21.9931 57.2291 22.721 56.9691 23.4575C56.7091 24.1769 56.5791 24.8193 56.5791 25.3845C56.5791 25.847 56.6847 26.1553 56.896 26.3094C57.1235 26.4465 57.4404 26.515 57.8467 26.515C58.4967 26.515 59.2118 26.3009 59.9919 25.8727C60.7882 25.4445 61.5439 24.9135 62.2589 24.2797C63.0065 23.646 63.6972 23.0036 64.331 22.3528C64.9648 21.6847 65.4361 21.1452 65.7449 20.7341C66.0536 20.4087 66.3787 20.2459 66.7199 20.2459C67.0125 20.2459 67.2481 20.383 67.4269 20.657C67.6219 20.9311 67.7194 21.2822 67.7194 21.7104C67.7194 22.1044 67.6219 22.524 67.4269 22.9694C67.2481 23.4147 66.9475 23.8344 66.5249 24.2283C65.4523 25.3759 64.331 26.4722 63.1609 27.517C61.9908 28.5447 60.7882 29.384 59.5531 30.0349C58.3342 30.6858 57.1073 31.0112 55.8722 31.0112Z" fill="#1D3048"/>
<path d="M64.5504 31.0112C63.9816 31.0112 63.5347 30.8228 63.2096 30.446C62.8846 30.0692 62.7221 29.6067 62.7221 29.0586C62.7221 28.6132 62.9659 27.7825 63.4534 26.5664C63.941 25.3331 64.5097 24.0142 65.1598 22.6097C65.9886 20.7769 66.7199 19.1925 67.3537 17.8565C67.9875 16.5034 68.4588 15.4756 68.7676 14.7734C69.0926 14.0368 69.4989 13.4887 69.9865 13.129C70.474 12.7693 70.9534 12.5895 71.4247 12.5895C71.8147 12.5895 72.1641 12.7436 72.4729 13.052C72.7817 13.3431 72.9361 13.7799 72.9361 14.3623C72.9361 14.585 72.9117 14.8248 72.8629 15.0817C72.8142 15.3386 72.7248 15.6127 72.5948 15.9039C73.0986 15.2358 73.8462 14.585 74.8375 13.9512C75.8288 13.3003 76.9014 12.7608 78.0553 12.3326C79.2091 11.9043 80.2736 11.6902 81.2486 11.6902C82.11 11.6902 82.825 11.9129 83.3938 12.3582C83.9789 12.7865 84.2714 13.523 84.2714 14.5678C84.2714 15.4585 84.0845 16.4263 83.7107 17.4711C83.3369 18.4988 82.89 19.4923 82.37 20.4515C81.8174 21.4621 81.2974 22.3528 80.8099 23.1235C80.3386 23.8772 79.9729 24.5024 79.7129 24.9991C79.5016 25.2732 79.396 25.59 79.396 25.9497C79.396 26.2923 79.5666 26.4636 79.9079 26.4636C80.0217 26.4636 80.1517 26.455 80.2979 26.4379C80.4442 26.4037 80.623 26.3094 80.8342 26.1553C82.0531 25.6757 83.2638 25.0676 84.4664 24.3311C85.6853 23.5946 86.7985 22.8324 87.8061 22.0444C88.8299 21.2565 89.6506 20.5628 90.2681 19.9633C90.5282 19.7406 90.7801 19.6293 91.0238 19.6293C91.6089 19.6293 91.9014 20.0233 91.9014 20.8112C91.9014 21.3422 91.7389 21.9331 91.4139 22.584C91.1051 23.2349 90.6094 23.8429 89.9269 24.4082C88.7405 25.2989 87.6273 26.1296 86.5872 26.9004C85.5634 27.654 84.4745 28.3392 83.3207 28.9558C82.1668 29.5724 80.7936 30.1206 79.201 30.6001C78.3722 30.8742 77.6652 31.0112 77.0802 31.0112C75.4225 31.0112 74.5937 30.052 74.5937 28.1336C74.5937 28.0137 74.5937 27.9024 74.5937 27.7996C74.61 27.6797 74.6262 27.5513 74.6425 27.4142C74.6912 26.6435 74.9512 25.7528 75.4225 24.7422C75.8938 23.7145 76.4057 22.7039 76.9583 21.7104C77.5108 20.7512 78.0065 19.852 78.4453 19.0127C78.8841 18.1734 79.1035 17.5482 79.1035 17.1371C79.1035 16.5205 78.8272 16.2122 78.2746 16.2122C77.2508 16.2122 76.2676 16.529 75.325 17.1628C74.3987 17.7966 73.5211 18.6016 72.6923 19.5779C71.8797 20.5371 71.1322 21.5477 70.4496 22.6097C69.7671 23.6545 69.1658 24.6052 68.6457 25.4616C68.2719 26.1125 67.9063 26.8747 67.5488 27.7482C67.2075 28.6218 66.8012 29.384 66.3299 30.0349C65.8749 30.6858 65.2817 31.0112 64.5504 31.0112Z" fill="#1D3048"/>
<path d="M92.3646 31.0112C91.0645 31.0112 89.9513 30.6772 89.0249 30.0092C88.1148 29.3241 87.416 28.4334 86.9285 27.3372C86.4572 26.2238 86.2216 25.0334 86.2216 23.7659C86.2216 22.6525 86.5222 21.4107 87.1235 20.0404C87.7411 18.653 88.6186 17.3255 89.7562 16.058C90.8938 14.7905 92.2508 13.7457 93.8272 12.9235C95.4198 12.0842 97.1506 11.6645 99.0195 11.6645C100.368 11.6645 101.376 12.0071 102.042 12.6923C102.709 13.3774 103.042 14.328 103.042 15.5442C103.042 16.2636 102.863 17.0172 102.505 17.8051C102.148 18.593 101.53 19.3895 100.653 20.1946C99.7752 21.0167 98.597 21.856 97.1181 22.7125C95.6555 23.5518 93.8191 24.3996 91.6089 25.256C91.7876 26.318 92.6002 26.849 94.0466 26.849C95.1679 26.849 96.3787 26.6092 97.6788 26.1296C98.9789 25.6329 100.23 25.0676 101.433 24.4339C102.635 23.8172 103.667 23.2349 104.529 22.6868C105.39 22.1386 105.902 21.8303 106.064 21.7618C106.211 21.659 106.341 21.5991 106.454 21.582C106.585 21.5648 106.698 21.5563 106.796 21.5563C107.186 21.5563 107.454 21.719 107.6 22.0444C107.763 22.3528 107.844 22.6097 107.844 22.8152C107.844 22.9694 107.828 23.1578 107.795 23.3805C107.763 23.586 107.641 23.8258 107.43 24.0999C107.218 24.3225 106.601 24.8107 105.577 25.5644C104.553 26.318 103.456 27.046 102.286 27.7482C100.856 28.5875 99.2633 29.3412 97.5081 30.0092C95.753 30.6772 94.0385 31.0112 92.3646 31.0112ZM91.2432 22.3014C92.2996 21.719 93.3722 21.0424 94.461 20.2716C95.5661 19.4837 96.403 18.9099 96.9718 18.5502C97.7356 18.0364 98.2394 17.5825 98.4832 17.1885C98.7595 16.7603 98.8976 16.4006 98.8976 16.1094C98.8976 15.8525 98.8164 15.6469 98.6538 15.4928C98.5076 15.3386 98.3369 15.2444 98.1419 15.2101L97.9225 15.1845H97.7031C96.8093 15.1845 95.9805 15.4585 95.2167 16.0066C94.4691 16.5376 93.8353 17.2056 93.3153 18.0107C92.7627 18.85 92.3158 19.6379 91.9745 20.3744C91.6495 21.1109 91.4057 21.7533 91.2432 22.3014Z" fill="#1D3048"/>
<path d="M104.919 31.0112C104.35 31.0112 103.903 30.8228 103.578 30.446C103.253 30.0692 103.09 29.6067 103.09 29.0586C103.09 28.6132 103.334 27.7825 103.822 26.5664C104.309 25.3331 104.878 24.0142 105.528 22.6097C106.357 20.7769 107.088 19.1925 107.722 17.8565C108.356 16.5034 108.827 15.4756 109.136 14.7734C109.461 14.0368 109.867 13.4887 110.355 13.129C110.842 12.7693 111.322 12.5895 111.793 12.5895C112.183 12.5895 112.533 12.7436 112.841 13.052C113.15 13.3431 113.304 13.7799 113.304 14.3623C113.304 14.585 113.28 14.8248 113.231 15.0817C113.183 15.3386 113.093 15.6127 112.963 15.9039C113.467 15.2358 114.215 14.585 115.206 13.9512C116.197 13.3003 117.27 12.7608 118.424 12.3326C119.577 11.9043 120.642 11.6902 121.617 11.6902C122.478 11.6902 123.193 11.9129 123.762 12.3582C124.347 12.7865 124.64 13.523 124.64 14.5678C124.64 15.4585 124.453 16.4263 124.079 17.4711C123.705 18.4988 123.258 19.4923 122.738 20.4515C122.186 21.4621 121.666 22.3528 121.178 23.1235C120.707 23.8772 120.341 24.5024 120.081 24.9991C119.87 25.2732 119.764 25.59 119.764 25.9497C119.764 26.2923 119.935 26.4636 120.276 26.4636C120.39 26.4636 120.52 26.455 120.666 26.4379C120.813 26.4037 120.991 26.3094 121.203 26.1553C122.421 25.6757 123.632 25.0676 124.835 24.3311C126.054 23.5946 127.167 22.8324 128.174 22.0444C129.198 21.2565 130.019 20.5628 130.637 19.9633C130.897 19.7406 131.148 19.6293 131.392 19.6293C131.977 19.6293 132.27 20.0233 132.27 20.8112C132.27 21.3422 132.107 21.9331 131.782 22.584C131.473 23.2349 130.978 23.8429 130.295 24.4082C129.109 25.2989 127.996 26.1296 126.956 26.9004C125.932 27.654 124.843 28.3392 123.689 28.9558C122.535 29.5724 121.162 30.1206 119.569 30.6001C118.741 30.8742 118.034 31.0112 117.449 31.0112C115.791 31.0112 114.962 30.052 114.962 28.1336C114.962 28.0137 114.962 27.9024 114.962 27.7996C114.978 27.6797 114.995 27.5513 115.011 27.4142C115.06 26.6435 115.32 25.7528 115.791 24.7422C116.262 23.7145 116.774 22.7039 117.327 21.7104C117.879 20.7512 118.375 19.852 118.814 19.0127C119.252 18.1734 119.472 17.5482 119.472 17.1371C119.472 16.5205 119.196 16.2122 118.643 16.2122C117.619 16.2122 116.636 16.529 115.693 17.1628C114.767 17.7966 113.889 18.6016 113.061 19.5779C112.248 20.5371 111.501 21.5477 110.818 22.6097C110.135 23.6545 109.534 24.6052 109.014 25.4616C108.64 26.1125 108.275 26.8747 107.917 27.7482C107.576 28.6218 107.17 29.384 106.698 30.0349C106.243 30.6858 105.65 31.0112 104.919 31.0112Z" fill="#1D3048"/>
<path d="M130.393 31.0112C129.109 31.0112 128.215 30.6772 127.711 30.0092C127.207 29.3412 126.956 28.519 126.956 27.5427C126.956 26.6863 127.094 25.7956 127.37 24.8707C127.646 23.9457 127.955 23.115 128.296 22.3784L131.148 16.2122H130.1C129.19 16.2122 128.564 16.058 128.223 15.7497C127.882 15.4414 127.711 15.0902 127.711 14.6963C127.711 14.3023 127.923 13.857 128.345 13.3603C128.768 12.8464 129.345 12.5895 130.076 12.5895H132.709L137.852 1.82419C138.177 1.17331 138.575 0.710835 139.047 0.436778C139.534 0.145593 140.038 0 140.558 0C141.046 0 141.492 0.137028 141.899 0.411085C142.305 0.685142 142.508 1.13905 142.508 1.7728C142.508 2.09825 142.435 2.43225 142.289 2.77482C142.159 3.10027 141.98 3.48566 141.752 3.931C141.492 4.44486 141.143 5.13856 140.704 6.01212C140.265 6.86855 139.721 7.90482 139.071 9.12095L137.316 12.5895H145.263C146.043 12.5895 146.677 12.7008 147.164 12.9235C147.668 13.129 147.92 13.6001 147.92 14.3366C147.92 14.7134 147.79 15.0817 147.53 15.4414C147.27 15.8011 146.709 16.0152 145.848 16.0837H135.707L134.001 19.6807L132.489 22.9437C132.294 23.3548 132.099 23.8344 131.904 24.3825C131.725 24.9135 131.636 25.3845 131.636 25.7956C131.636 26.3094 131.863 26.5664 132.319 26.5664C132.839 26.5664 133.537 26.3351 134.415 25.8727C135.293 25.4102 136.219 24.845 137.194 24.1769C138.185 23.5089 139.136 22.8152 140.046 22.0958C140.956 21.3593 141.793 20.6485 142.557 19.9633C142.833 19.7749 143.077 19.6807 143.288 19.6807C143.646 19.6807 143.914 19.8862 144.093 20.2973C144.271 20.7084 144.288 21.2051 144.141 21.7875C144.011 22.3699 143.629 22.9266 142.996 23.4575C141.939 24.4681 140.867 25.4273 139.778 26.3351C138.705 27.2258 137.641 28.0223 136.585 28.7246C135.512 29.4097 134.456 29.9578 133.415 30.3689C132.375 30.7971 131.368 31.0112 130.393 31.0112Z" fill="#1D3048"/>
<path d="M149.992 9.96881C148.984 9.96881 148.277 9.80609 147.871 9.48065C147.465 9.13808 147.237 8.69274 147.189 8.14462C147.189 7.33958 147.465 6.55167 148.017 5.78088C148.586 4.99297 149.423 4.59901 150.528 4.59901C151.471 4.59901 152.129 4.79599 152.503 5.18995C152.876 5.56678 153.063 6.04638 153.063 6.62875C153.063 7.27963 152.82 7.99903 152.332 8.78694C151.861 9.57486 151.081 9.96881 149.992 9.96881ZM144.02 31.0112C142.703 31.0112 141.663 30.6601 140.899 29.9578C140.152 29.2384 139.778 28.1251 139.778 26.6178C139.778 25.5729 139.957 24.5366 140.314 23.5089C140.688 22.4641 141.094 21.4878 141.533 20.5799C141.988 19.655 142.346 18.85 142.606 18.1648C142.687 17.9422 142.825 17.5996 143.02 17.1371C143.231 16.6746 143.451 16.2036 143.678 15.724L144.507 13.9255C144.783 13.4459 145.1 13.1033 145.458 12.8978C145.815 12.6923 146.181 12.5895 146.555 12.5895C147.172 12.5895 147.7 12.8036 148.139 13.2318C148.594 13.6429 148.822 14.1739 148.822 14.8248C148.806 14.9789 148.781 15.1331 148.749 15.2872C148.732 15.4414 148.684 15.5955 148.602 15.7497C148.245 16.4348 147.936 17.0772 147.676 17.6767C147.416 18.259 147.148 18.85 146.872 19.4495C146.644 19.9462 146.36 20.5543 146.018 21.2737C145.677 21.9931 145.376 22.721 145.116 23.4575C144.856 24.1769 144.726 24.8193 144.726 25.3845C144.726 25.847 144.832 26.1553 145.043 26.3094C145.271 26.4465 145.588 26.515 145.994 26.515C146.644 26.515 147.359 26.3009 148.139 25.8727C148.936 25.4445 149.691 24.9135 150.406 24.2797C151.154 23.646 151.845 23.0036 152.478 22.3528C153.112 21.6847 153.583 21.1452 153.892 20.7341C154.201 20.4087 154.526 20.2459 154.867 20.2459C155.16 20.2459 155.395 20.383 155.574 20.657C155.769 20.9311 155.867 21.2822 155.867 21.7104C155.867 22.1044 155.769 22.524 155.574 22.9694C155.395 23.4147 155.095 23.8344 154.672 24.2283C153.6 25.3759 152.478 26.4722 151.308 27.517C150.138 28.5447 148.936 29.384 147.7 30.0349C146.482 30.6858 145.255 31.0112 144.02 31.0112Z" fill="#1D3048"/>
<path d="M156.817 31.0112C156.265 31.0112 155.607 30.8485 154.843 30.5231C154.079 30.1976 153.405 29.6581 152.82 28.9044C152.251 28.1508 151.966 27.1402 151.966 25.8727C151.966 24.8107 152.194 23.4832 152.649 21.8903C153.104 20.2973 153.819 18.7301 154.794 17.1885C155.769 15.6127 157.012 14.3023 158.524 13.2575C160.051 12.2127 161.815 11.6902 163.814 11.6902C164.529 11.6902 165.154 11.7844 165.691 11.9729C166.227 12.1613 166.682 12.3668 167.056 12.5895C167.267 12.7265 167.462 12.8721 167.641 13.0263C167.836 13.1633 168.015 13.3174 168.177 13.4887L169.03 13.052C169.274 12.9321 169.526 12.8293 169.786 12.7436C170.062 12.6409 170.298 12.5895 170.493 12.5895C171.111 12.5895 171.614 12.7693 172.004 13.129C172.394 13.4887 172.589 13.8827 172.589 14.3109C172.589 14.4479 172.581 14.5421 172.565 14.5935C172.451 15.0731 172.24 15.7326 171.931 16.5719C171.639 17.4112 171.322 18.3447 170.981 19.3724C170.639 20.3658 170.347 21.325 170.103 22.25C169.875 23.1749 169.762 23.9371 169.762 24.5366C169.762 25.0505 169.843 25.4787 170.005 25.8213C170.168 26.1467 170.444 26.3094 170.834 26.3094C171.306 26.3094 171.939 26.0268 172.736 25.4616C173.532 24.8792 174.353 24.1941 175.198 23.4062C175.653 22.9779 176.124 22.524 176.612 22.0444C177.099 21.5477 177.595 21.0253 178.099 20.4772C178.359 20.2545 178.611 20.1432 178.854 20.1432C179.179 20.1432 179.447 20.3145 179.659 20.657C179.886 20.9825 180 21.3507 180 21.7618C180 22.2414 179.846 22.6439 179.537 22.9694C178.887 23.6031 178.22 24.2797 177.538 24.9991C176.855 25.7185 175.913 26.6006 174.71 27.6455C173.638 28.5704 172.533 29.3669 171.395 30.0349C170.257 30.6858 169.233 31.0112 168.323 31.0112C167.186 31.0112 166.357 30.5488 165.837 29.6238C165.317 28.6818 165.057 27.6797 165.057 26.6178C165.057 25.847 165.163 25.1618 165.374 24.5623C164.707 25.5044 163.919 26.4807 163.009 27.4913C162.099 28.4848 161.116 29.3241 160.06 30.0092C159.003 30.6772 157.923 31.0112 156.817 31.0112ZM158.768 26.4893C159.288 26.4893 159.938 26.1382 160.718 25.4359C161.514 24.7336 162.278 23.9115 163.009 22.9694C163.822 21.9417 164.464 21.0082 164.935 20.1689C165.406 19.3296 165.642 18.7643 165.642 18.4731C165.642 17.8223 165.284 17.3084 164.569 16.9316C163.854 16.5376 163.212 16.3406 162.644 16.3406C161.636 16.3406 160.677 16.6832 159.767 17.3683C158.873 18.0535 158.142 18.9356 157.573 20.0147C157.004 21.0767 156.72 22.1815 156.72 23.3291C156.72 23.9971 156.834 24.6908 157.061 25.4102C157.305 26.1296 157.874 26.4893 158.768 26.4893Z" fill="#1D3048"/>
</g>
</svg>
