<svg width="24" height="24" viewBox="0 0 24 24" fill="none" xmlns="http://www.w3.org/2000/svg">
<path d="M14.5 6.04297V17.9951L9.73535 14.3945C9.56173 14.2633 9.34946 14.1924 9.13184 14.1924H6.5V10.0771H9.12402C9.35171 10.0771 9.57246 9.99899 9.75 9.85645L14.5 6.04297Z" stroke="#E2E3DF" stroke-linecap="round" stroke-linejoin="round"/>
<path d="M15.1609 10.5726C16.0991 10.5726 16.8596 11.3332 16.8596 12.2714C16.8596 13.2096 16.0991 13.9701 15.1609 13.9701" stroke="#E2E3DF" stroke-width="0.8"/>
<path d="M16.2898 14.7911C17.1986 14.7911 18.0957 13.769 18.0957 12.272C18.0957 10.7749 17.1986 9.75276 16.2898 9.75276V8.79195C17.8751 8.79195 18.9998 10.4557 18.9998 12.272C18.9998 14.0882 17.8751 15.752 16.2898 15.752V14.7911Z" fill="#E2E3DF"/>
<circle cx="12" cy="12" r="12" fill="#8895AC"/>
<path d="M14.5 6.04297V17.9951L9.73535 14.3945C9.56173 14.2633 9.34946 14.1924 9.13184 14.1924H6.5V10.0771H9.12402C9.35171 10.0771 9.57246 9.99899 9.75 9.85645L14.5 6.04297Z" stroke="#E2E3DF" stroke-linecap="round" stroke-linejoin="round"/>
<path d="M15.1609 10.5726C16.0991 10.5726 16.8596 11.3332 16.8596 12.2714C16.8596 13.2096 16.0991 13.9701 15.1609 13.9701" stroke="#E2E3DF" stroke-width="0.8"/>
<path d="M16.2898 14.7911C17.1986 14.7911 18.0957 13.769 18.0957 12.272C18.0957 10.7749 17.1986 9.75276 16.2898 9.75276V8.79195C17.8751 8.79195 18.9998 10.4557 18.9998 12.272C18.9998 14.0882 17.8751 15.752 16.2898 15.752V14.7911Z" fill="#E2E3DF"/>
</svg>
